<svg xmlns="http://www.w3.org/2000/svg" version="1.0" xml:space="preserve" viewBox="0 0 24 24" height="100%" width="100%" enable-background="new 0 0 24 24"><circle cy="4" transform="matrix(1.23,0,0,1.23,-3.25,-2.39)" cx="11" r="2"/><polygon points="9.4,9.7,13.9,8,14.3,11.4,10.5,13.2" transform="matrix(1.23,0,0,1.23,-3.25,-2.39)"/><path d="m15.2,9.31c1.36,0,6.78-0.616,6.78-9.24" stroke="#000" stroke-miterlimit="10" stroke-width="1.2" fill="none"/><line stroke-linejoin="round" y2="14.8" fill="none" y1="24.1" stroke="#000" stroke-miterlimit="10" x2="14.6" x1="14.6" stroke-width="1.15"/><path d="m2.04,4.76s0.986,1.6,1.85,3.08c0.862,1.36,2.46,1.85,3.94,1.23l7.07-2.96c0.862-0.37,1.6-1.11,1.85-2.09,0.493-1.48,0.986-3.45,0.986-3.45" stroke="#000" stroke-miterlimit="10" stroke-width="2.5" fill="none"/><path d="m6.66,23.8c0.0265-0.146,0.871-4.2,0.914-4.35,0.357-1.18,1.26-2.22,2.36-2.77l5.67-2.83c1.09-0.543,2.33,0.125,2.46,1.36l0.616,5.54" stroke="#000" stroke-miterlimit="10" stroke-width="2.5" fill="none"/></svg>
