<svg xmlns="http://www.w3.org/2000/svg" xml:space="preserve" height="24" viewBox="-0.258 -0.548 24 24" width="24" version="1.1" y="0px" x="0px"><g transform="translate(-2.3,-97.35)"><path fill="#000" d="m12.49,100.5c0.8995,0,1.627-0.726,1.627-1.62,0-0.9014-0.7279-1.627-1.627-1.627-0.894,0-1.62,0.726-1.62,1.627,0,0.894,0.726,1.62,1.62,1.62z"/><path fill="#000" d="m10.92,105.7v-3.176c0-0.8995,0.726-1.626,1.627-1.626,0.8995,0,1.626,0.726,1.626,1.626v0.5596l1.727,0.6134c0.4046,0.1437,0.6859,0.5148,0.5919,0.9334-0.09552,0.4254-0.516,0.6929-0.9389,0.5937l-1.38-0.4811v0.9571"/><path fill="#000" d="m16.36,106.3c0.9193-0.0191,1.764-3.428,6.162-6.16,0.5064-0.3146-0.4366,1.066,0.03467,1.431,1.073,0.8314,1.837,1.67,2.867,2.355,0.5151,0.3423,0.8071,0.9235,0.5026,1.461-0.2428,0.4284-0.6692,0.5083-1.098,0.3405-5.128-2.008-5.175,3.089-6.146,5.653-0.8152,2.153,0.9188,5.786,1.528,8.058h-1.366c-0.5985-2.234-2.719-7.457-4.146-7.457h-7.028c-0.9806,0-2.594,5.335-2.632,7.457h-1.415c0.00802-4.398,1.982-7.554,1.565-11.58-1.788,0.5513-1.652,4.709-1.947,6.087l-1.161-0.0382c-0.2165-2.295,0.3234-7.318,3.137-7.376z"/><path fill="#000" d="m7.602,112.9,0.9979,0c-0.09125,1.519,0.4138,4.564,1.063,6.562h-1.169c-0.6242-2.584-1.243-3.348-1.449-5.489,0.1502-0.3435,0.207-0.6495,0.5575-1.073z"/><path d="m15.18,112.9-1.005,0c0.09159,1.525-0.4154,4.581-1.067,6.587h1.078c0.6303-2.61,1.387-3.735,1.602-5.91-0.1684-0.2594-0.3526-0.5032-0.6074-0.6762z" fill="#000"/><path stroke-linejoin="miter" d="m13.83,7.667c3.004,1.445,6.188,1.885,9.624,0.9254" transform="translate(2,96.798748)" stroke="#000" stroke-linecap="butt" stroke-miterlimit="4" stroke-dasharray="none" stroke-width="0.4" fill="none"/></g></svg>
