<svg xmlns="http://www.w3.org/2000/svg" version="1.0" viewBox="0 0 24 24" height="100%" width="100%" enable-background="new 0 0 24 24"><path d="m10.9,10.7,2.05,4.46c0.362,0.844-0.241,1.69-1.08,1.69h-8.44" stroke="#000" stroke-miterlimit="10" stroke-width="2.41090941" fill="none"/><path d="M4.66,3.56,9.61,2.24c0.723-0.241,1.45,0,2.05,0.362l4.7,3.5c0.482,0.362,0.844,0.844,0.964,1.45l0.241,1.33c0.241,1.08,1.21,1.93,2.41,1.93h3.98" stroke="#000" stroke-miterlimit="10" stroke-width="2.41090941" fill="none"/><path d="m16.6,7.78-4.34,3.5,0,5.18-3.38-4.7c-0.76-1-0.64-2.45,0.33-3.3l5.42-4.58,2.05,1.45-0.121,2.41z"/><circle cy="4" transform="matrix(1.2054548,0,0,1.2054548,-2.5681844,-2.4654571)" cx="18" r="2"/><polygon points="11.8,18,9,18,6.2,20.9,7.9,22" transform="matrix(1.2054548,0,0,1.2054548,-2.5681844,-2.4654571)"/><g transform="matrix(1.2054548,0,0,1.2054548,-2.5681844,-2.4654571)"><path d="M9,7.8,10.1,7h-8.1v1h6.7c0.1-0.1,0.2-0.1,0.3-0.2z"/><path d="M7.5,11h-5.5v1h5.8c-0.2-0.3-0.2-0.7-0.3-1z"/><path d="M7.9,9h-5.9v1h5.6c0-0.4,0.2-0.7,0.3-1z"/></g></svg>
