<svg xmlns="http://www.w3.org/2000/svg" version="1.0" viewBox="0 0 24 24" height="100%" width="100%" enable-background="new 0 0 24 24"><path d="m12,20.4,0-5.51c0-0.4-0.1-0.6-0.4-0.9-0.6-0.6-1.99-2-1.99-2" stroke="#000" stroke-miterlimit="10" stroke-width="2.39384317" fill="none"/><circle cy="4" transform="matrix(1.1969216,0,0,1.1969216,-2.3630597,-2.3630597)" cx="15" r="2"/><g transform="matrix(1.1969216,0,0,1.1969216,-2.3630597,-2.3630597)"><path d="m18,15.6c1.3,0,2.4,1.1,2.4,2.4s-1.1,2.4-2.4,2.4-2.4-1.1-2.4-2.4,1.1-2.4,2.4-2.4m0-1.6c-2.2,0-4,1.8-4,4s1.8,4,4,4,4-1.8,4-4-1.8-4-4-4z"/></g><g transform="matrix(1.1969216,0,0,1.1969216,-2.3630597,-2.3630597)"><path d="m6,15.6c1.3,0,2.4,1.1,2.4,2.4s-1.1,2.4-2.4,2.4-2.4-1.1-2.4-2.4,1.1-2.4,2.4-2.4m0-1.6c-2.2,0-4,1.8-4,4s1.8,4,4,4,4-1.8,4-4-1.8-4-4-4z"/></g><path d="m17.1,9.25c-2.99-3.71-3.47-4.43-4.73-4.43s-1.97,0.718-5.45,4.19c-1.29,1.29-1.17,2.99,0.14,3.79l4.07,2.39,1.68-1.2-2.39-1.56,3.35-2.99,1.8,1.92c0.359,0.479,0.958,0.718,1.56,0.718h4.43v-2.39l-3.89-0.0598c-0.2,0.06-0.4-0.06-0.6-0.3z"/></svg>
