<svg xmlns="http://www.w3.org/2000/svg" version="1.0" viewBox="0 0 24 24" height="100%" width="100%" enable-background="new 0 0 24 24"><circle cy="4" transform="matrix(1.2013457,0,0,1.2013457,-2.958343,-2.4161479)" cx="17" r="2"/><path d="m1.85,16.8h5.41c0.721,0,1.44-0.36,1.92-0.961l0.36-0.481" stroke="#000" stroke-miterlimit="10" stroke-width="2.40269136" fill="none"/><path d="m5.45,7.19s2.52-1.2,3.84-1.92c0.61-0.24,1.21-0.36,1.81-0.12l1.56,0.481,2.04,0.961c0.481,0.24,0.841,0.601,1.08,1.08l0.961,1.92c0.36,0.841,1.2,1.32,2.16,1.32h3.48" stroke="#000" stroke-miterlimit="10" stroke-width="2.40269136" fill="none"/><path d="M12.3,5.99,9.42,11c-0.601,1.08-0.36,2.4,0.601,3.24l4.69,3.36-1.44-3.48s-0.961,0.12-0.721-0.24l3.4-6.22-3.7-1.69z"/><path d="m13.7,18-2.28,6.01h2.52l2.04-5.17c0.481-1.32,0.24-2.88-0.841-3.84l-2.88-2.88-1.68,1.68,2.88,2.88c0.36,0.36,0.481,0.841,0.24,1.32z"/></svg>
