<svg xmlns="http://www.w3.org/2000/svg" version="1.0" viewBox="0 0 24 24" height="100%" width="100%" enable-background="new 0 0 24 24"><circle cy="5" transform="matrix(1.2700349,0,0,1.2700349,-2.6667066,-3.6145619)" cx="19" r="2"/><path d="m10.4,5.91s2.29-3.18,5.72-3.18c1.78,0,2.79,1.14,2.79,2.67,0,0.254-0.127,4.7-0.127,4.7l-1-2.92-3.2,1.91-4.2-3.18z"/><line stroke-width="1.91" y2="1.21" y1="8.32" stroke="#000" stroke-miterlimit="10" x2="3.81" x1="15.1" fill="none"/><path d="m22.6,21.6c-1.78,0.889-4.32,0.381-6.1-0.635l-15.2-8.9-1.27,2.2,15.3,8.8c1.02,0.635,2.29,0.889,3.43,0.889s2.16-0.254,3.18-0.762l2.03-1.14z"/><path d="M22.9,13,19.1,10.6c-0.9-0.5-1.4-1.51-1.4-2.66v-2.41" stroke="#000" stroke-miterlimit="10" stroke-width="2.54006982" fill="none"/><path d="M9.02,18.1,14.4,15.1c1.02-0.635,1.14-2.03,0.127-2.67-1.78-1.27-4.19-2.79-4.19-2.79" stroke="#000" stroke-miterlimit="10" stroke-width="2.54006982" fill="none"/><path d="M14.9,11.2,9.02,7.18,8.51,7.69c-1.27,1.27-0.89,3.31,0.63,4.11l5.46,2.67,0.254-3.18z"/></svg>
