<svg xmlns="http://www.w3.org/2000/svg" version="1.0" viewBox="0 0 24 24" height="100%" width="100%" enable-background="new 0 0 24 24"><ellipse cx="18.5" rx="2.5" ry="2.5" transform="matrix(1.3050847,0,0,1.3050847,-4.6271186,-3.8135593)" cy="8.5"/><path d="m24.1,17.6c-1.83-0.783-4.83-1.83-7.18-1.83-2.22,0-4.05,0.653-5.74,1.44-1.57,0.653-3,1.17-4.7,1.17-2.61,0-6.79-1.57-8.48-2.22v2.74c2.22,0.914,5.74,2.09,8.48,2.09,2.22,0,3.92-0.653,5.61-1.44,1.57-0.653,3-1.17,4.83-1.17,2.35,0,5.74,1.44,7.18,2.09v-2.87z"/><path d="m3.2,9.24,4.57-2.74c1.17-0.653,2.61-0.392,3.39,0.653,1.44,1.83,3.52,4.57,3.52,4.57" stroke="#000" stroke-miterlimit="10" stroke-width="2.61016941" fill="none"/><path d="m3.2,14.5s1.04,1.31,3.26,1.31c3.26,0,3.78-2.61,11.1-2.61l-4-4.75-10.4,6.05z"/></svg>
