<svg xmlns="http://www.w3.org/2000/svg" height="100%" width="100%" version="1.0" enable-background="new 0 0 24 24" viewBox="0 0 24 24"><path d="m12,20.3,0-5.52c0-0.4-0.1-0.6-0.4-0.9l-2-2" stroke="#000" stroke-miterlimit="10" stroke-width="2.4018445" fill="none"/><path d="m19.2,3.49c0,1.32-1.08,2.4-2.4,2.4-1.92,0-1.08-2.4-6-2.4,0,0,2.76-2.4,6-2.4,1.32,0,2.4,1.08,2.4,2.4z"/><g transform="matrix(1.2009223,0,0,1.2009223,-2.4110676,-3.4103934)"><path d="m18,15.6c1.3,0,2.4,1.1,2.4,2.4s-1.1,2.4-2.4,2.4-2.4-1.1-2.4-2.4,1.1-2.4,2.4-2.4m0-1.6c-2.2,0-4,1.8-4,4s1.8,4,4,4,4-1.8,4-4-1.8-4-4-4z"/></g><g transform="matrix(1.2009223,0,0,1.2009223,-2.4110676,-2.5115288)"><path d="m6,16.3c0.6,0,1,0.4,1,1s-0.4,1-1,1-1-0.4-1-1,0.4-1,1-1m0-3c-2.2,0-4,1.8-4,4s1.8,4,4,4,4-1.8,4-4-1.8-4-4-4z"/></g><path d="m12.2,4.69c-1.02,0-1.74,0.721-5.22,4.2-1.32,1.32-1.2,3,0.12,3.84l4.08,2.4,1.68-1.2-2.4-1.56,3.36-3,1.8,1.92c0.36,0.48,0.961,0.721,1.56,0.721h4.44v-2.4l-3.9-0.06c-0.4,0.17-0.6,0.05-2.1-1.99s-2.5-2.76-3.5-2.76z"/></svg>
