<svg xmlns="http://www.w3.org/2000/svg" version="1.0" xml:space="preserve" viewBox="0 0 24 24" height="100%" width="100%" enable-background="new 0 0 24 24"><path d="m4.77,12s0.964-1.45,1.69-2.53c0.48-0.72,1.08-1.21,1.93-1.45l2.51-0.72c1.45-0.361,2.89,0.361,3.37,1.69l0.723,1.57c0.361,0.964,1.08,1.57,2.05,1.93l2.17,0.723" stroke="#000" stroke-miterlimit="10" stroke-width="2.40988231" fill="none"/><circle cy="4" transform="matrix(1.2049411,0,0,1.2049411,-2.4592934,-2.4592934)" cx="13" r="2"/><path d="M10.3,7.3,9.11,12.8c-0.241,0.843,0.12,1.69,0.602,2.29l4.1,4.46-1.2-5.66,1.08-4.94-0.843-1.69h-2.53z"/><g transform="matrix(1.2049411,0,0,1.2049411,-2.4592934,-2.4592934)"><path d="m14.6,22h2.1c-0.4-1-1.4-3.5-1.8-4.7l-2.9-4.2-1.6,1.2,2.7,3.6,1.5,4.1z"/><polygon points="9.9,19.4,10.7,17,9.2,15.3,8.3,18.2,5.3,22,7.6,22"/></g></svg>
