<svg xmlns="http://www.w3.org/2000/svg" version="1.0" viewBox="0 0 24 24" height="100%" width="100%" enable-background="new 0 0 24 24"><circle cy="4" transform="matrix(1.2,0,0,1.2,-2.42,-2.42)" cx="13" r="2"/><g transform="matrix(1.2,0,0,1.2,-2.42,-2.42)"><path d="m18,12.6c1.3,0,2.4,1.1,2.4,2.4s-1.1,2.4-2.4,2.4-2.4-1.1-2.4-2.4,1.1-2.4,2.4-2.4m0-1.6c-2.2,0-4,1.8-4,4s1.8,4,4,4,4-1.8,4-4-1.8-4-4-4z"/></g><g transform="matrix(1.2,0,0,1.2,-2.4161479,-2.4161479)"><path d="m6,15.6c1.3,0,2.4,1.1,2.4,2.4s-1.1,2.4-2.4,2.4-2.4-1.1-2.4-2.4,1.1-2.4,2.4-2.4m0-1.6c-2.2,0-4,1.8-4,4s1.8,4,4,4,4-1.8,4-4-1.8-4-4-4z"/></g><path d="M11.5,14.5,11.4,12.4,7.8,10.8,11,6.83,14.6,7.19,10.3,3.95c-0.7-0.6-1.66-0.48-2.14,0.24-1.21,1.32-3.01,3.49-3.97,4.69-1.08,1.32-0.6,3.32,1.08,3.82l6.25,1.8z"/><polyline transform="matrix(1.2013457,0,0,1.2013457,-2.4161479,-2.4161479)" stroke="#000" points="17,9,13.2,8.6,9.9,6.1" stroke-miterlimit="10" stroke-width="2" fill="none"/><polyline transform="matrix(1.2,0,0,1.2,-2.42,-2.42)" stroke="#000" points="13,18,11.3,13,7.5,11.1" stroke-miterlimit="10" stroke-width="2" fill="none"/><path d="m0.948,8.16,0,0c-0.841-0.6-0.841-1.81-0.241-2.65l1.56-1.92c1.2-1.44,3.24-1.68,4.68-0.48l0.24,0.24-3.6,4.57c-0.72,0.84-1.8,0.96-2.64,0.24z"/></svg>
