<svg xmlns="http://www.w3.org/2000/svg" version="1.0" viewBox="0 0 24 24" height="100%" width="100%" enable-background="new 0 0 24 24"><circle cy="13" transform="matrix(1.2044119,0,0,1.2044119,-2.4529427,-2.4427221)" cx="14" r="2"/><path d="m12.2,1.53,4.1-1.57s0.964,1.93,1.2,3.61c0.241,1.32,0,2.89-0.964,3.25-1,0.37-1.9-0.35-2.6-1.55-0.8-1.45-1.7-3.74-1.7-3.74z"/><line stroke-width="1.2" y2="21.2" y1="2.98" stroke="#000" stroke-miterlimit="10" x2="21.9" x1="15.4" fill="none"/><path d="m20.1,17.4-2.65,1.2c-1.2,0.602-2.65,0.482-3.85-0.241-0.964-0.602-2.05-1.32-3.01-1.93-1.13-0.8-1.73-2.1-1.61-3.4,0.36-2.1,1.91-3.74,4.01-4.1l3.85-0.843" stroke="#000" stroke-miterlimit="10" stroke-width="2.40882373" fill="none"/><path d="m-0.0441,20.9c1.69-0.723,4.46-1.69,6.62-1.69,2.05,0,3.73,0.602,5.3,1.32,1.45,0.602,2.77,1.08,4.34,1.08,2.41,0,6.26-1.45,7.83-2.05v2.53c-2.05,0.723-5.3,1.81-7.83,1.81-2.05,0-3.61-0.602-5.18-1.32-1.45-0.361-2.89-0.964-4.46-0.964-2.17,0-5.3,1.32-6.62,1.93v-2.65z"/><g transform="matrix(1.2044119,0,0,1.2044119,-2.4529427,-2.4427221)"><path d="m7.5,17c1.5,0,4.9,1.1,6,1.5-0.4-0.9-1.7-1.6-1.7-1.6l-1.7-2-1.3-3-2.5,5.1h1.2z"/></g></svg>
