<svg xmlns="http://www.w3.org/2000/svg" version="1.0" xml:space="preserve" viewBox="0 0 24 24" height="100%" width="100%" enable-background="new 0 0 24 24"><circle cy="4" transform="matrix(1.2037427,0,0,1.2037427,-2.5082716,-2.4209418)" cx="13" r="2"/><path d="m10.6,5.28,3.13,2.41-1.56,5.54,2.05,2.77-0.963,2.05-3.85-3.13c-0.66-0.6-1.02-1.6-0.78-2.5l2.03-7.12z"/><line stroke-linejoin="round" y2="24.1" fill="none" y1="6.01" stroke="#000" stroke-miterlimit="10" x2="19.8" x1="19.8" stroke-width="1.2"/><path d="m10.7,13.2,2.89,3.37c0.481,0.602,0.722,1.32,0.722,2.05v5.42" stroke="#000" stroke-miterlimit="10" stroke-width="2.40748525" fill="none"/><path d="m10.3,6.47,1.49,0.373c1,0.25,1.8,0.73,2.5,1.45l0.963,0.963c0.481,0.481,1.08,0.602,1.69,0.481,1.2-0.241,3.01-0.602,3.01-0.602" stroke="#000" stroke-miterlimit="10" stroke-width="2.40748525" fill="none"/><polygon points="7.1,22,9.2,22,11,17,9.4,15.6" transform="matrix(1.2037427,0,0,1.2037427,-2.5082716,-2.4209418)"/><path d="m4.95,12.9,0,0c-1.08-0.4-1.8-1.6-1.44-2.7l0.72-2.39c0.72-2.17,3.13-3.37,5.3-2.77l-1.93,6.38c-0.36,1.2-1.44,1.8-2.65,1.5z"/></svg>
